<?xml version="1.0" encoding="utf-8"?>
<!-- Generator: Adobe Illustrator 13.0.0, SVG Export Plug-In  -->
<!DOCTYPE svg PUBLIC "-//W3C//DTD SVG 1.1//EN" "http://www.w3.org/Graphics/SVG/1.1/DTD/svg11.dtd" [
	<!ENTITY ns_flows "http://ns.adobe.com/Flows/1.0/">
]>
<svg version="1.1"
	 xmlns="http://www.w3.org/2000/svg" xmlns:xlink="http://www.w3.org/1999/xlink" xmlns:a="http://ns.adobe.com/AdobeSVGViewerExtensions/3.0/"
	 x="0px" y="0px" width="720px" height="720px" viewBox="-24.695 -20.163 720 720" enable-background="new -24.695 -20.163 720 720"
	 xml:space="preserve">
<defs>
</defs>
<radialGradient id="SVGID_1_" cx="348.2407" cy="348.2451" r="348.1665" gradientUnits="userSpaceOnUse">
	<stop  offset="0" style="stop-color:#FFFFFF"/>
	<stop  offset="0.1042" style="stop-color:#FFFDEC"/>
	<stop  offset="0.3144" style="stop-color:#FFF6BC"/>
	<stop  offset="0.612" style="stop-color:#FFEC6F"/>
	<stop  offset="0.9825" style="stop-color:#FFDE05"/>
	<stop  offset="1" style="stop-color:#FFDD00"/>
</radialGradient>
<polygon fill="url(#SVGID_1_)" stroke="#FFFFFF" points="348.241,0.076 375.481,176.306 455.84,17.113 427.272,193.128 
	552.893,66.572 471.342,225.147 629.901,143.596 503.346,269.208 679.368,240.651 520.184,321.01 696.405,348.25 520.184,375.48 
	679.368,455.831 503.346,427.281 629.901,552.886 471.342,471.343 552.893,629.908 427.272,503.354 455.84,679.369 375.481,520.184 
	348.241,696.414 320.991,520.184 240.65,679.369 269.208,503.354 143.586,629.908 225.147,471.343 66.563,552.886 193.141,427.281 
	17.108,455.831 176.313,375.48 0.076,348.25 176.313,321.01 17.108,240.651 193.141,269.208 66.563,143.596 225.147,225.147 
	143.586,66.572 269.208,193.128 240.65,17.113 320.991,176.306 "/>
<path fill="#46C3D3" d="M269.443,393.412l0.045,0.148c-0.071-0.081-0.135-0.148-0.113-0.148h0.024H269.443z M327.23,390.244
	c-0.901-1.447-2.078-3.146-3.617-5.015c-1.537-1.873-3.449-3.91-6.163-5.699c-1.362-0.888-2.954-1.688-4.851-2.165
	c-0.941-0.241-1.962-0.388-3.021-0.376c-0.55-0.013-1.014,0.036-1.655,0.104c-0.413,0.062-0.769,0.101-1.283,0.204
	c-3.68,0.704-7.298,2.059-10.75,4.352c-1.31,0.884-2.58,1.911-3.756,3.089c-1.408-0.716-3.072-1.463-4.607-2.112
	c-1.475-1.057-3.067-2.345-4.765-3.799c-0.53-0.452-1.084-0.955-1.629-1.442c-4.329-5.896-5.982-15.794-3.352-22.517
	c-2.958,2.096-4.287,9.76-5.761,14.341c-0.375-0.312-0.745-0.624-1.134-0.936c-1.17-0.967-2.435-1.889-3.726-2.775
	c-1.254-0.891-2.714-1.806-4.018-2.574c-0.671-0.394-1.349-0.788-2.024-1.185c-0.324-0.215-0.626-0.44-0.914-0.727
	c-0.56-0.586-1.077-1.451-1.478-2.561c-0.857-2.206-1.24-5.086-1.584-7.998c-0.332-2.938-0.576-5.982-1.229-9.154
	c-0.181-0.818-0.356-1.551-0.658-2.506c-0.207-0.596-0.607-1.798-1.264-2.707c-0.636-0.926-1.434-1.714-2.27-2.292
	c-0.837-0.562-1.694-0.987-2.516-1.254c-3.294-1.063-6.031-0.874-8.482-0.714c-2.448,0.208-4.591,0.625-6.476,1
	c-1.885,0.358-3.501,0.771-4.835,1.079c-2.673,0.639-4.201,1.005-4.201,1.005s1.559,0.319,4.312,0.564
	c1.371,0.122,3.04,0.272,4.924,0.374c1.885,0.134,4.003,0.293,6.206,0.565c2.167,0.278,4.577,0.711,6.262,1.629
	c0.83,0.467,1.323,0.976,1.512,1.48c0.113,0.267,0.117,0.442,0.312,1.209c0.078,0.423,0.182,1.105,0.246,1.716
	c0.227,2.143,0.28,4.572,0.415,7.137c-4.069,1.134-11.226,6.56-11.885,12.358c1.027-0.811,7.527-5.182,12.866-3.912
	c0.239,1.054,0.534,2.129,0.931,3.228c0.682,1.79,1.715,3.687,3.328,5.305c0.812,0.803,1.76,1.497,2.775,2.035
	c0.667,0.349,1.329,0.699,1.992,1.045c0.7,0.358,1.289,0.706,1.907,1.053c0.621,0.333,1.238,0.674,1.852,1.042
	c1.232,0.715,2.411,1.463,3.583,2.213c1.204,0.802,2.386,1.593,3.546,2.363c0.722,0.47,1.009,0.636,1.624,1.073
	c0.566,0.391,1.122,0.778,1.675,1.16c2.244,1.534,4.457,2.915,6.575,4.066c1.341,0.734,2.648,1.354,3.902,1.893
	c0.317,1.319,0.568,2.837,0.586,4.322c-0.009,0.018-0.013,0.036-0.022,0.057c-0.457,0.982-1.216,1.792-2.3,2.489
	c-2.194,1.393-5.64,2.162-9.396,2.545c-0.942,0.085-1.906,0.059-2.868,0.079l-0.36,0.01l-0.115-0.193
	c-0.007,0.002-0.008,0.008-0.018,0.008l-0.807,0.231c-0.249-0.023-0.593,0.076-0.764,0.034l-0.558-0.057l-0.558-0.058l-0.699-0.146
	c-0.468-0.113-0.931-0.166-1.407-0.302c-0.951-0.244-1.906-0.485-2.847-0.829c-1.914-0.562-3.736-1.391-5.536-2.181
	c-0.848-0.479-1.735-0.894-2.569-1.359c-0.789-0.519-1.641-0.968-2.391-1.501c-0.727-0.554-1.518-1.046-2.182-1.623
	c-0.652-0.588-1.368-1.123-1.957-1.727c-0.59-0.617-1.168-1.217-1.725-1.798c-0.493-0.645-0.972-1.267-1.432-1.863
	c-0.513-0.587-0.778-1.265-1.182-1.858c-0.365-0.605-0.768-1.178-0.991-1.774c-0.269-0.587-0.504-1.146-0.765-1.665
	c-0.126-0.264-0.246-0.516-0.361-0.755c-0.101-0.244-0.159-0.486-0.236-0.717c-0.271-0.914-0.562-1.651-0.729-2.161
	c-0.186-0.516-0.287-0.789-0.287-0.789s-0.058,0.281-0.168,0.808c-0.086,0.527-0.259,1.312-0.381,2.336
	c-0.033,0.255-0.081,0.529-0.097,0.813c0,0.282,0.001,0.579,0.003,0.89c-0.003,0.625,0.036,1.301,0.062,2.038
	c-0.013,0.751,0.198,1.496,0.352,2.313c0.092,0.409,0.185,0.828,0.278,1.257c0.094,0.432,0.198,0.873,0.38,1.294
	c0.324,0.859,0.695,1.753,1.077,2.692c0.467,0.881,1.011,1.761,1.558,2.691c0.56,0.92,1.305,1.72,1.991,2.622
	c0.692,0.903,1.574,1.62,2.392,2.462c0.834,0.822,1.809,1.476,2.744,2.226c0.961,0.704,1.992,1.315,3.024,1.952
	c2.118,1.156,4.352,2.178,6.69,2.925c1.158,0.389,2.362,0.676,3.564,0.952c0.591,0.159,1.232,0.222,1.844,0.32l0.927,0.134
	l1.078,0.079l1.074,0.063c0.37,0.021,0.571-0.007,0.865-0.017l0.809-0.047l0.253-0.011l0.028-0.005l0.054-0.008l0.113-0.014
	l0.22-0.026l0.443-0.061c1.173-0.169,2.315-0.38,3.421-0.669c2.009-0.494,3.923-1.179,5.707-2.048
	c9.778-1.525,10.798,19.101,9.953,25.124c-1.415,1.711-3.218,3.694-4.899,5.838c-1.243,1.581-2.41,3.309-3.241,5.089
	c-0.393,0.905-0.729,1.801-0.906,2.7c-0.19,0.892-0.247,1.757-0.185,2.539c0.06,0.78,0.218,1.473,0.43,2.052
	c0.188,0.587,0.446,1.053,0.647,1.433c0.203,0.376,0.419,0.641,0.537,0.834c0.129,0.188,0.194,0.285,0.194,0.285
	s-0.039-0.112-0.115-0.328c-0.067-0.217-0.206-0.515-0.301-0.921c-0.095-0.405-0.218-0.89-0.245-1.457
	c-0.056-0.558-0.03-1.19,0.092-1.844c0.117-0.656,0.348-1.337,0.688-2.01c0.328-0.673,0.797-1.328,1.305-1.976
	c1.073-1.277,2.428-2.478,3.907-3.594c2.911-2.228,6.156-4.139,8.647-6.311c0.295,0.245,0.587,0.496,0.902,0.712
	c1.888,1.312,3.823,2.114,5.591,2.693c1.785,0.583,3.46,1,5.071,1.404c0.791,0.182,1.571,0.361,2.339,0.537
	c0.696,0.162,1.431,0.354,2.14,0.555c1.426,0.395,2.822,0.815,4.146,1.251c2.663,0.859,5.099,1.713,7.227,2.528
	c2.116,0.847,3.944,1.629,5.37,2.394c1.402,0.777,2.473,1.51,2.83,2.22c0.375,0.731-0.147,1.206-0.096,1.182
	c-0.007-0.008,0.11-0.055,0.272-0.236c0.167-0.167,0.371-0.562,0.28-1.077c-0.173-1.03-1.058-2.208-2.306-3.407
	c-1.252-1.22-2.893-2.531-4.871-3.856c-1.967-1.355-4.258-2.753-6.851-4.121c-1.3-0.679-2.664-1.369-4.125-2.024
	c-0.74-0.326-1.484-0.646-2.3-0.958c-0.757-0.276-1.522-0.555-2.298-0.838c-3.009-1.091-6.231-2.236-8.188-3.865
	c-0.975-0.817-1.726-1.811-2.439-3.128c-0.705-1.306-1.293-2.889-1.876-4.535c-0.577-1.654-1.099-3.41-1.607-5.189l-0.78-2.698
	c-0.219-0.839-0.436-1.614-0.57-2.42c-0.603-3.189-0.507-6.283,0.53-8.978c1.004-2.704,2.932-5.034,5.327-6.864
	c2.391-1.813,5.247-3.173,7.927-3.95c0.278-0.097,0.724-0.196,1.105-0.295c0.153-0.03,0.484-0.127,0.727-0.146
	c0.528-0.084,1.077-0.095,1.645-0.053c1.138,0.075,2.319,0.442,3.47,0.896c2.306,0.949,4.389,2.375,6.214,3.674
	c1.818,1.33,3.346,2.641,4.642,3.696c2.535,2.175,4.075,3.386,4.075,3.386s-0.235-0.425-0.676-1.218
	C328.8,392.827,328.149,391.668,327.23,390.244 M269.488,393.561l0.044,0.15l0.064,0.104
	C269.682,393.795,269.582,393.668,269.488,393.561 M262.131,288.118c-0.701,6.052,5.301,14.843,5.301,14.843
	s-0.89-12.148,0.644-14.982c2.114-3.904,1.618-16.119-8.428-16.327C264.765,273.515,262.78,282.499,262.131,288.118
	 M278.222,482.392c-0.005,0-0.014-0.002-0.019-0.002c0.004,0,0.009,0.002,0.013,0.002H278.222z M277.713,482.295
	c0.199,0.06,0.367,0.095,0.49,0.095C278.06,482.385,277.878,482.276,277.713,482.295 M471.223,333.482
	c-1.336-0.298-2.955-0.697-4.844-1.036c-1.889-0.36-4.035-0.759-6.482-0.947c-2.453-0.138-5.189-0.303-8.477,0.787
	c-0.82,0.276-1.672,0.708-2.506,1.277c-0.83,0.584-1.623,1.379-2.252,2.311c-0.648,0.915-1.039,2.122-1.236,2.717
	c-0.297,0.957-0.465,1.692-0.641,2.513c-0.627,3.178-0.844,6.222-1.15,9.164c-0.32,2.915-0.676,5.798-1.518,8.011
	c-0.389,1.115-0.898,1.982-1.451,2.576c-0.289,0.286-0.586,0.514-0.91,0.734c-0.674,0.4-1.346,0.802-2.014,1.201
	c-1.297,0.776-2.75,1.704-3.994,2.606c-1.285,0.897-2.541,1.83-3.703,2.806c-0.387,0.315-0.754,0.632-1.127,0.948
	c-1.514-4.57-2.908-12.224-5.881-14.292c2.686,6.699,1.115,16.61-3.162,22.545c-0.541,0.489-1.092,0.997-1.615,1.454
	c-1.686,1.469-3.266,2.771-4.732,3.841c-1.529,0.662-3.189,1.42-4.59,2.152c-1.186-1.17-2.465-2.186-3.783-3.059
	c-3.471-2.261-7.102-3.586-10.787-4.261c-0.514-0.098-0.873-0.134-1.281-0.193c-0.646-0.061-1.105-0.105-1.658-0.088
	c-1.061-0.003-2.08,0.151-3.018,0.401c-1.895,0.494-3.479,1.307-4.832,2.206c-2.699,1.811-4.594,3.866-6.113,5.751
	c-1.525,1.883-2.688,3.593-3.576,5.045c-0.906,1.433-1.549,2.597-1.992,3.388c-0.434,0.798-0.666,1.224-0.666,1.224
	s1.529-1.224,4.047-3.42c1.285-1.065,2.801-2.39,4.607-3.735c1.816-1.315,3.889-2.757,6.184-3.727
	c1.15-0.465,2.328-0.844,3.463-0.925c0.568-0.045,1.117-0.043,1.646,0.037c0.242,0.018,0.572,0.114,0.727,0.144
	c0.383,0.092,0.828,0.188,1.107,0.281c2.688,0.754,5.555,2.091,7.961,3.883c2.41,1.812,4.359,4.127,5.385,6.819
	c1.059,2.684,1.182,5.778,0.605,8.974c-0.125,0.807-0.336,1.583-0.547,2.424l-0.758,2.705c-0.492,1.782-1,3.544-1.561,5.201
	c-0.572,1.654-1.146,3.24-1.84,4.553c-0.703,1.321-1.443,2.324-2.412,3.15c-1.941,1.646-5.156,2.818-8.154,3.934
	c-0.773,0.29-1.537,0.573-2.291,0.856c-0.814,0.319-1.557,0.644-2.293,0.978c-1.455,0.669-2.814,1.37-4.107,2.06
	c-2.582,1.392-4.859,2.808-6.814,4.18c-1.969,1.343-3.598,2.668-4.84,3.898c-1.238,1.211-2.113,2.396-2.275,3.424
	c-0.088,0.519,0.119,0.913,0.287,1.076c0.166,0.182,0.285,0.229,0.277,0.235c0.047,0.024-0.477-0.448-0.109-1.18
	c0.354-0.716,1.418-1.457,2.812-2.242c1.418-0.781,3.238-1.578,5.346-2.443c2.123-0.832,4.553-1.707,7.207-2.589
	c1.32-0.447,2.713-0.878,4.137-1.284c0.705-0.209,1.439-0.408,2.135-0.573c0.766-0.184,1.545-0.368,2.332-0.56
	c1.609-0.418,3.281-0.848,5.061-1.447c1.764-0.592,3.691-1.411,5.566-2.74c0.314-0.219,0.604-0.473,0.898-0.721
	c2.51,2.156,5.77,4.034,8.701,6.237c1.488,1.104,2.854,2.293,3.936,3.56c0.514,0.644,0.99,1.296,1.322,1.967
	c0.344,0.667,0.582,1.348,0.707,2.003s0.156,1.285,0.107,1.843c-0.027,0.567-0.141,1.052-0.236,1.456
	c-0.09,0.409-0.229,0.709-0.291,0.926c-0.074,0.217-0.113,0.33-0.113,0.33s0.066-0.099,0.191-0.287
	c0.119-0.195,0.332-0.459,0.531-0.84c0.197-0.383,0.449-0.847,0.635-1.437c0.205-0.58,0.359-1.275,0.41-2.058
	c0.061-0.782-0.006-1.647-0.205-2.535c-0.184-0.896-0.527-1.79-0.93-2.692c-0.846-1.771-2.027-3.489-3.287-5.061
	c-1.697-2.131-3.516-4.1-4.943-5.798c-3.377-4.596-0.412-24.405,9.736-25.207c1.791,0.854,3.678,0.774,5.746,0.684
	c5.338-0.237,9.225-1.205,14.234-2.847c4.385-1.438,7.018-3.683,10.832-6.563c7.295-5.504,9.57-12.97,9.424-18.787
	c-0.014-0.53-0.17-0.793-0.17-0.793s-0.102,0.275-0.283,0.793c-0.162,0.51-0.445,1.249-0.709,2.166
	c-0.074,0.23-0.133,0.473-0.23,0.717c-0.115,0.244-0.23,0.495-0.357,0.76c-0.252,0.52-0.484,1.083-0.746,1.669
	c-0.221,0.601-0.619,1.177-0.979,1.785c-0.398,0.595-0.656,1.278-1.166,1.868c-0.455,0.6-0.928,1.227-1.418,1.875
	c-0.551,0.588-1.121,1.191-1.707,1.814c-0.586,0.606-1.293,1.149-1.941,1.741c-0.66,0.583-1.449,1.082-2.17,1.641
	c-0.746,0.54-1.59,0.996-2.379,1.522c-0.828,0.473-1.711,0.896-2.553,1.383c-1.795,0.803-3.609,1.649-5.52,2.228
	c-6.475,1.965-14.381,2.654-20.404-1.146c-1.094-0.691-1.859-1.494-2.324-2.473c-0.01-0.021-0.014-0.039-0.021-0.06
	c0.006-1.483,0.242-3.002,0.549-4.326c1.25-0.547,2.551-1.178,3.885-1.923c2.109-1.172,4.312-2.571,6.543-4.125
	c0.547-0.385,1.102-0.778,1.662-1.173c0.613-0.442,0.898-0.609,1.615-1.086c1.15-0.781,2.33-1.582,3.527-2.396
	c1.164-0.761,2.336-1.515,3.564-2.242c0.609-0.376,1.225-0.722,1.84-1.058c0.617-0.354,1.203-0.707,1.9-1.067
	c0.658-0.354,1.318-0.71,1.98-1.066c1.014-0.544,1.953-1.247,2.76-2.057c1.598-1.631,2.615-3.536,3.281-5.331
	c0.389-1.104,0.676-2.182,0.902-3.236c5.33-1.316,11.865,3.001,12.898,3.803c-0.705-5.795-7.906-11.16-11.99-12.258
	c0.115-2.563,0.148-4.994,0.355-7.139c0.059-0.609,0.158-1.294,0.232-1.719c0.188-0.769,0.189-0.945,0.301-1.211
	c0.184-0.508,0.674-1.022,1.502-1.493c1.676-0.934,4.082-1.388,6.246-1.682c2.201-0.292,4.316-0.469,6.199-0.618
	c1.885-0.121,3.553-0.284,4.924-0.416c2.75-0.271,4.305-0.604,4.305-0.604S473.901,334.098,471.223,333.482 M432.17,287.888
	c1.557,2.821,0.77,14.975,0.77,14.975s5.926-8.841,5.176-14.887c-0.701-5.613-2.76-14.58,2.342-16.487
	C430.415,271.784,430.022,284.002,432.17,287.888 M423.686,482.381c0.006,0,0.01-0.002,0.016-0.002
	c-0.008,0-0.016,0.002-0.021,0.002H423.686z M491.952,379.682c-0.018,0.601-2.535,57.168-34.316,64.555
	c0.85,5.249-0.035,14.067-9.484,25.75c-10.049,12.425-16.498,17.188-20.578,18.881c-3.561,8.869-14.967,23.221-38.062,25.959
	c-2.691,3.245-6.318,4.45-10.018,4.396c-2.717-0.041-5.471-0.758-7.916-1.844c-5.656-2.512-11.551-9.604-11.852-19.512
	c-2.779-3.065-7.643-10.844-2.885-24.595c-1.346-1.183-2.676-2.893-3.129-5.225c-0.521-2.676,0.223-5.384,2.211-8.08
	c-3.838-6.982-2.811-14.819-1.812-22.427c0.877-6.703,1.707-13.031-0.551-18.79c-1.58-4.03-2.512-8.439-2.965-12.935
	c-0.439,4.287-1.319,8.489-2.796,12.352c-2.208,5.778-1.324,12.099-0.39,18.791c1.063,7.601,2.156,15.43-1.619,22.443
	c2.01,2.68,2.776,5.382,2.278,8.061c-0.435,2.334-1.749,4.059-3.084,5.252c4.874,13.71,0.078,21.529-2.674,24.617
	c-0.218,9.912-6.051,17.053-11.686,19.613c-2.437,1.105-5.186,1.849-7.899,1.91c-3.697,0.085-7.334-1.088-10.056-4.309
	c-23.117-2.541-34.645-16.796-38.282-25.635c-4.092-1.659-10.583-6.365-20.737-18.705c-9.551-11.602-10.509-20.415-9.706-25.668
	c-31.842-7.114-34.843-63.659-34.866-64.259c-0.435-9.314,3.398-14.54,6.196-18.358c2.41-3.289,2.659-3.938,2.037-5.335
	c-5.499-13.314-10.111-59.51,9.639-78.628c-2.458-9.426-1.793-21.745,5.169-30.185c2.573-3.118,4.196-7.516,5.765-11.77
	c2.149-5.819,4.36-11.813,9.195-15.401c0.74-10.143,10.312-19.896,19.551-25c3.4-1.88,7.724-5.545,11.907-9.092
	c8.037-6.814,14.975-12.703,21.117-12.267c2.339,0.166,5.963-0.463,9.799-1.128c5.901-1.024,12.592-2.184,19.206-1.514
	c7.477,0.759,11.32,4.3,13.23,7.135c2.63,3.908,3.281,9.076,1.786,14.178c-1.88,6.427-3.818,22.785-0.982,32.496
	c2.265,7.747,0.344,27.542-2.475,35.243c1.679,3.024,5.6,10.836-0.992,18.293c-1.357,1.532-1.592,2.425-1.568,2.639
	c0.054,0.494,1.595,1.611,2.253,2.088c0.917,0.664,1.784,1.292,2.476,2.149c2.004,2.483,2.25,7.603,2.026,17.439
	c-0.017,0.799-0.034,1.485-0.037,2.003c-0.045,5.766-1.733,10.651-4.58,13.424c7.402,12.295,14.022,40.871,6.994,54.167
	c1.624,4.73,3.142,11.365,3.8,18.591c0.631-6.995,2.053-13.404,3.592-18.015c-7.142-13.236-0.762-41.864,6.533-54.223
	c-2.869-2.75-4.6-7.621-4.693-13.386c-0.008-0.519-0.029-1.203-0.055-2.002c-0.309-9.834-0.104-14.954,1.877-17.456
	c0.688-0.864,1.549-1.5,2.461-2.172c0.652-0.481,2.184-1.609,2.232-2.104c0.021-0.215-0.221-1.105-1.59-2.627
	c-6.654-7.399-2.803-15.244-1.148-18.283c-2.887-7.675-4.973-27.454-2.775-35.22c2.754-9.734,0.674-26.073-1.26-32.486
	c-1.539-5.088-0.932-10.262,1.664-14.192c1.887-2.853,5.699-6.424,13.168-7.249c6.609-0.726,13.311,0.376,19.221,1.35
	c3.84,0.633,7.467,1.231,9.807,1.045c6.141-0.488,13.125,5.341,21.223,12.085c4.213,3.511,8.566,7.141,11.98,8.99
	c9.285,5.027,18.938,14.697,19.766,24.832c4.865,3.548,7.129,9.523,9.326,15.324c1.605,4.24,3.266,8.625,5.865,11.721
	c7.035,8.38,7.803,20.692,5.426,30.14c19.914,18.948,15.695,65.181,10.311,78.543c-0.609,1.402-0.357,2.049,2.084,5.315
	C488.432,365.172,492.309,370.365,491.952,379.682 M254.986,222.047c1.303-0.989,3.185-1.716,5.894-2.039
	c19.775-2.361,14.398-12.161,13.38-19.902c-1.298,0.925-2.574,1.761-3.794,2.436C261.545,207.472,254.875,215.935,254.986,222.047
	 M233.995,272.884c4.996-0.36,9.395-1.968,11.621-4.341c1.235-1.316,2.396-3.149,1.724-6.246l0.009,0.002
	c-1.583-5.793-0.146-9.261,4.2-19.629c1.894-4.516,1.438-7.857,1.037-10.804c-0.242-1.79-0.407-3.62-0.156-5.301
	c-3.354,2.035-5.182,6.965-7.106,12.184c-1.8,4.875-3.66,9.915-7.088,14.072C233.793,258.206,232.939,266.167,233.995,272.884
	 M251.842,436.455c3.799-0.264,4.191-0.665,4.927-4.239c0.365-1.774,0.335-5.048-0.786-6.53c-0.025-0.031-0.044-0.057-0.066-0.084
	c-1.243-1.596-2.837-4.001-4.455-6.983c-0.649-1.185-1.31-2.47-1.979-3.794l-0.02,0.037c0,0-0.235-0.176-0.642-0.487
	c-0.085-0.055-0.052-0.13-0.278-0.267c-0.258-0.132-0.518-0.315-0.89-0.458c-0.821-0.375-1.931-0.746-3.16-1.028
	c-3.845-0.912-7.667,0.178-11.482,2.248c0,0,0.125-0.295,0.347-0.81c0.097-0.276,0.269-0.577,0.506-0.902
	c0.218-0.342,0.478-0.731,0.839-1.084c0.18-0.187,0.365-0.381,0.554-0.583c0.213-0.174,0.432-0.354,0.662-0.54
	c0.45-0.4,0.981-0.699,1.534-1.056c1.118-0.638,2.396-1.223,3.717-1.632c0.604-0.198,1.215-0.364,1.821-0.509
	c-0.148-1.11-0.343-2.558-0.791-4.333c-1.086-1.45-2.164-2.899-3.3-4.253c-1.3-1.582-2.653-3.066-4.024-4.333
	c-1.367-1.278-2.781-2.271-4.101-2.896c-0.33-0.143-0.658-0.267-0.979-0.365c-0.161-0.068-0.317-0.082-0.476-0.134l-0.22-0.057
	l-0.375-0.049c-0.543-0.068-0.854-0.105-1.32-0.146c-0.44-0.047-0.882-0.08-1.321-0.11c-1.763-0.095-3.507-0.086-5.18-0.083
	c-0.891,0.004-1.764-0.003-2.61-0.037c0.273,0.011,2.763,12.818,3.079,13.977c2.494,9.141,6.129,19.14,13.168,25.81
	c3.088,2.924,6.835,4.903,11.052,5.548C247.664,436.606,249.762,436.6,251.842,436.455 M280.905,482.839
	c-0.246-0.136-0.493-0.268-0.723-0.443c-0.642-0.455-1.349-0.994-1.917-1.649c-0.311-0.317-0.6-0.669-0.912-1.029
	c-0.276-0.357-0.512-0.75-0.777-1.144c-0.544-0.793-0.937-1.647-1.332-2.533c-0.388-0.886-0.642-1.805-0.91-2.733
	c-0.19-0.927-0.394-1.865-0.467-2.788c-0.076-0.928-0.125-1.839-0.066-2.72c0.044-1.524,0.317-2.952,0.671-4.2
	c-0.248-1.287-0.428-2.506-0.556-3.487c-1.951-0.919-3.702-2.088-5.215-3.413c-2.145-1.832-3.87-3.937-5.297-6.084
	c-1.866-2.864-3.162-5.86-3.929-8.751c-0.625,0.458-1.354,0.843-2.123,1.103c-0.995,0.362-2.051,0.491-3.05,0.469
	c-0.591-0.011-1.15-0.109-1.683-0.237l-0.225,0.323c-0.12,0.207-4.286,7.785,7.385,21.966c10.169,12.357,15.95,16.21,17.934,16.809
	c-0.045,0.004-0.093,0.012-0.135,0.045L280.905,482.839z M341.366,394.546c-0.044-3.664-0.277-7.354-0.589-10.959
	c-0.173-1.774-0.362-3.542-0.59-5.233c-0.467-1.665-0.957-3.188-1.466-4.482l-0.793-2.016l0.379-0.526
	c-0.859-2.244-1.912-4.393-3.045-6.389c-1.519-2.663-3.203-5.073-4.941-7.14c-1.732-2.078-3.51-3.826-5.229-5.209
	c-1.736-1.35-3.391-2.373-4.855-3.032c-0.489-0.212-0.938-0.387-1.369-0.545c-0.899,0.253-1.671,0.673-2.422,1.152
	c-0.074,0.146-0.129,0.292-0.211,0.438c-0.545,0.984-1.225,1.971-1.998,2.912c-0.773,0.953-1.631,1.869-2.556,2.758
	c-0.922,0.882-1.9,1.743-2.914,2.547c-1.002,0.824-2.062,1.582-3.089,2.34c-1.059,0.723-2.075,1.457-3.109,2.116
	c-0.996,0.689-2.013,1.313-2.929,1.931c-0.946,0.613-1.778,1.196-2.573,1.753c-0.72,0.558-1.454,1.094-1.926,1.598
	c-0.511,0.505-0.909,0.988-1.121,1.514c-0.06,0.142-0.118,0.275-0.174,0.407c-0.018,0.134-0.042,0.271-0.072,0.415
	c-0.083,0.286-0.083,0.57-0.05,0.83c0.009,0.536,0.118,0.997,0.2,1.308c0.072,0.333,0.109,0.511,0.109,0.511
	s-0.164-0.065-0.465-0.223c-0.291-0.17-0.793-0.373-1.248-0.878c-0.263-0.232-0.529-0.518-0.751-0.902
	c-0.125-0.185-0.251-0.39-0.366-0.608c-0.078-0.24-0.162-0.483-0.245-0.737c-0.207-0.533-0.191-1.094-0.239-1.732
	c0.032-0.581,0.097-1.268,0.268-1.865c0.308-1.287,0.908-2.417,1.594-3.576c0.716-1.078,1.537-2.168,2.447-3.122
	c0.912-0.987,1.881-1.9,2.909-2.764c1.013-0.866,2.089-1.659,3.146-2.433c1.084-0.747,2.149-1.476,3.223-2.132
	c0.981-0.625,1.951-1.197,2.897-1.739c0.715-2.397-0.421-4.855-2.13-6.999c-2.611-0.93-5.233-2.274-7.821-3.87
	c-2.039-1.247-4.05-2.657-6.103-4.181c-1.202-0.886-2.48-1.899-3.746-2.989c-5.66,0.25-13.008,3.053-16.508,5.427
	c-0.202-2.041,3.279-7.048,6.606-9.399c-0.539-0.071-1.089-0.153-1.651-0.255c-3.343-0.599-7.106-1.715-10.964-3.332
	c-1.932-0.807-3.891-1.738-5.838-2.829c-1.968-1.107-3.865-2.281-5.887-4.006l-0.497-0.461c-0.069-0.031-0.195-0.08-0.394-0.12
	c-0.532-0.107-1.343-0.186-2.19-0.163c-1.723,0.056-3.629,0.299-5.472,0.624c-3.708,0.658-7.27,1.534-10.316,2.321
	c-3.045,0.802-5.601,1.54-7.318,2.191c-0.835,0.347-1.514,0.638-1.834,0.951c-0.366,0.293-0.173,0.599-0.173,0.599
	c0.006-0.006-0.069-0.023-0.164-0.14c-0.104-0.113-0.155-0.394-0.062-0.68c0.178-0.572,0.632-1.274,1.319-2.016
	c0.761-0.853,1.785-1.798,3.045-2.78c2.639-2.061,8.536-4.563,9.265-7.831c0.728-3.269-3.453-8.759-4.894-11.783
	c-0.048-0.102-0.094-0.202-0.135-0.299c-1.993-4.696-3.025-8.962-3.112-12.666c-12.554,15.72-10.669,48.67-6.983,63.06
	c0.274,0.593,0.639,1.38,1.076,2.323c0.935,2.082,2.119,4.881,3.137,7.75c1.017,2.865,1.867,5.821,2.109,8.126
	c0.131,1.149,0.095,2.128-0.043,2.786c-0.135,0.659-0.354,0.974-0.333,0.98c0,0,0.007-0.094,0.02-0.268
	c0.024-0.167,0.008-0.42-0.027-0.729c-0.082-0.621-0.346-1.477-0.809-2.438c-0.811-1.716-2.226-3.765-3.793-5.776
	c-0.777,1.729-1.895,3.262-2.914,4.653c-2.446,3.334-4.974,6.782-4.667,13.337c0.003,0.1,0.101,1.728,0.394,4.37
	c0.1,0.906,2.525,2.483,3.531,2.324c5.989-0.959,10.48,0.949,16.085,4.277c2.153,1.276,8.282,7.695,9.489,9.608
	c0.609,0.944,2.442,3.604,2.966,4.507c0.227,0.377,4.073,4.35,9.055,5.14c3.899,0.619-6.133,0.778-5.615,2.689
	c0.473,1.882,2.482,5.229,5.061,8.698c4.417,2.919,9.479,4.523,14.833-1.116c-1.046,8.536-7.79,11.478-10.051,15.993
	c0.035,0.102,0.061,0.2,0.096,0.304c1.112,3.203,3.154,6.733,5.897,9.888c1.361,1.585,2.926,3.046,4.602,4.274
	c1.688,1.205,3.483,2.191,5.296,2.682c0.453,0.14,0.885,0.229,1.357,0.315c0.657,0.116,1.069,0.166,1.67,0.247
	c1.116,0.144,2.252,0.282,3.403,0.368c2.297,0.194,4.623,0.306,6.905,0.438c4.572,0.24,8.988,0.51,12.833,1.169
	c1.924,0.329,3.705,0.754,5.269,1.319c1.562,0.566,2.907,1.292,3.84,2.172c0.957,0.851,1.365,1.832,1.463,2.453
	c0.062,0.312,0.062,0.554,0.056,0.716c-0.007,0.155-0.011,0.239-0.011,0.239s-0.147-0.307-0.505-0.746
	c-0.35-0.444-1.006-0.902-1.913-1.189c-1.854-0.543-4.788-0.404-8.386-0.017c-3.604,0.374-7.888,0.962-12.632,1.232
	c-2.374,0.141-4.863,0.184-7.448,0.055c-1.292-0.078-2.611-0.178-3.944-0.362c-0.115-0.017-0.245-0.035-0.37-0.055
	c-0.227,0.642-0.375,1.395-0.484,2.231c0.083,0.217,0.172,0.413,0.262,0.639c0.258,0.681,0.503,1.387,0.749,2.112
	c0.23,0.729,0.473,1.469,0.684,2.22c0.195,0.757,0.434,1.495,0.591,2.26c0.216,0.73,0.353,1.502,0.534,2.217
	c0.178,0.717,0.285,1.466,0.454,2.134c0.062,0.349,0.152,0.682,0.193,1.036c0.072,0.324,0.159,0.634,0.214,0.961
	c0.104,0.676,0.267,1.244,0.394,1.835c0.101,0.628,0.285,1.11,0.421,1.628c0.064,0.26,0.145,0.493,0.197,0.747
	c0.085,0.221,0.165,0.423,0.237,0.604c0.152,0.339,0.254,0.664,0.343,0.889l0.157,0.023c-0.015,0.091-0.037,0.169-0.055,0.254
	c0.034,0.093,0.055,0.152,0.055,0.152s-0.035,0.004-0.088,0.007c-0.439,2.047-1.364,3.256-2.338,4.121
	c3.669,6.691,13.358,17.266,32.391,18.809l1.021,0.079c0.088-0.441,0.17-0.907,0.243-1.395c0.293-1.996,0.5-4.36,0.457-6.814
	c-0.017-1.216-0.104-2.472-0.324-3.591c-0.111-0.55-0.269-1.074-0.433-1.416c-0.034-0.075-0.067-0.131-0.1-0.178l-0.714,0.187
	c-0.735,0.122-1.494,0.227-2.262,0.263c-1.517,0.07-3.048-0.023-4.435-0.274c-1.418-0.219-2.68-0.601-3.881-0.96
	c-1.171-0.415-2.285-0.796-3.262-1.243c-1.978-0.868-3.547-1.737-4.632-2.41c-1.09-0.654-1.686-1.119-1.686-1.119
	s0.752-0.098,2.023-0.105c1.275-0.014,3.079,0.028,5.167,0.19c1.047,0.106,2.161,0.169,3.331,0.312
	c0.583,0.084,1.166,0.094,1.764,0.164c0.597,0.079,1.205,0.122,1.799,0.15c0.596,0.046,1.207,0.099,1.802,0.089
	c0.602,0.016,1.208,0.034,1.822-0.012c0.611-0.003,1.232-0.036,1.882-0.105l0.968-0.064l0.21-0.021l0.066-0.006l0.13-0.007
	c0.159-0.009,0.486-0.006,0.719,0.019c0.426,0.05,0.85,0.157,1.253,0.335c0.808,0.357,1.401,0.941,1.785,1.474
	c0.391,0.539,0.619,1.053,0.795,1.529c0.34,0.957,0.457,1.806,0.519,2.618c0.127,1.618-0.016,3.083-0.213,4.478
	c-0.436,2.781-1.225,5.238-2.145,7.255c-0.312,0.68-0.646,1.286-0.982,1.857l0.362,0.588c2.264,3.66,7.154,1.945,9.153,1.035
	c3.643-1.651,7.34-7.064,7.021-13.845l-0.1-2.111l1.699-1.26c0.198-0.162,5.594-4.75,1.794-16.35
	c-1.842,0.144-3.68,0.047-5.215,2.972c-0.391,3.603-1.48,8.229-3.821,12.115c0.966-4.553-0.037-8.104-1.358-10.592
	c-0.021,0-0.043,0.004-0.066,0.004c-1.533,0.075-2.969-0.03-4.33-0.186c-2.717-0.321-5.138-0.942-7.319-1.598
	c-4.351-1.355-7.734-2.941-10.046-4.181c-2.315-1.209-3.562-2.06-3.562-2.06s1.506,0.122,4.066,0.417
	c1.274,0.134,2.821,0.293,4.596,0.478c1.76,0.186,3.732,0.363,5.854,0.509c2.117,0.129,4.396,0.229,6.687,0.125
	c2.261-0.102,4.66-0.428,6.272-1.216c2.158-1.032,4.511-2.324,6.097-3.757c0.798-0.696,1.388-1.44,1.606-1.99
	c0.217-0.549,0.263-0.848,0.097-1.486c-0.172-0.613-0.651-1.488-1.358-2.341c-0.387-0.481-1.456-1.323-2.492-2.019
	c-2.163-1.427-4.587-2.789-6.937-4.067c-2.384-1.299-4.69-2.557-6.878-3.749c-2.199-1.209-4.282-2.377-6.188-3.513
	c-3.813-2.25-6.92-4.369-8.907-6.146c-0.999-0.879-1.696-1.714-2.03-2.378c-0.355-0.682-0.166-1.104-0.183-1.085
	c0,0,0.013,0.412,0.515,0.845c0.466,0.452,1.337,0.909,2.478,1.419c2.292,1.014,5.748,2.118,9.886,3.503
	c4.145,1.387,8.996,2.99,14.166,5.077c2.58,1.078,5.243,2.203,7.979,3.773c0.437,0.258,0.874,0.516,1.317,0.793
	c2.668-4.829,1.834-10.871,0.869-17.767c-0.694-4.977-1.448-10.422-0.803-15.897c-0.321,0.062-0.643,0.106-0.962,0.127
	c-0.696,0.052-1.366,0.009-1.988-0.092l-0.463-0.085l-0.113-0.02l-0.148-0.033l-0.037-0.01l-0.154-0.043l-0.608-0.168
	c-0.392-0.106-0.982-0.307-1.45-0.468c-0.461-0.181-0.894-0.363-1.324-0.553c-3.415-1.577-5.973-3.684-8.178-5.582
	c-2.204-1.908-4.035-3.712-5.779-5.072c-1.739-1.349-3.35-2.291-4.836-2.645c-1.475-0.326-2.763-0.184-3.601,0.064
	c-0.432,0.101-0.745,0.234-0.965,0.31c-0.219,0.078-0.333,0.121-0.333,0.121s0.095-0.079,0.276-0.224
	c0.186-0.14,0.442-0.391,0.845-0.616c0.764-0.482,2.063-1.153,3.924-1.2c1.84-0.043,4.074,0.54,6.259,1.642
	c2.209,1.071,4.493,2.5,6.886,3.96c2.395,1.448,4.958,2.91,7.639,3.74c0.334,0.089,0.664,0.178,1.002,0.268
	c1.932,0.316,3.015,0.653,4.129-1.275c0.582-1.02,1.083-2.461,1.445-4.006c0.359-1.555,0.599-3.242,0.789-4.968
	C341.342,401.864,341.446,398.209,341.366,394.546 M316.287,493.533c0.29-0.034,0.067-0.129,0.128-0.131h-0.017l-0.375,0.098
	c0.023,0.02,0.028,0.024,0.059,0.043c0.079,0.038,0.154,0.065,0.23,0.073L316.287,493.533z M252.631,317.909l-0.026-0.025
	C252.449,317.741,252.554,317.854,252.631,317.909 M252.724,317.967c0,0-0.002-0.002,0.004,0c-0.002-0.002-0.016-0.005-0.017-0.007
	C252.716,317.964,252.72,317.965,252.724,317.967 M331.063,320.174l-9.326-6.351c-1.56-0.033-2.974-0.063-3.185-0.026
	c-0.471,0.062-0.902-0.084-1.448-0.124c-0.302-0.035-1.372-0.113-2.323-0.208c-0.257,0.177-0.377,0.251-0.609,0.426
	c-1.729,1.3-3.21,2.861-4.309,4.332c-1.077,1.494-1.795,2.947-2.125,4.229c-0.311,1.281-0.262,2.381-0.104,3.122
	c0.168,0.74,0.334,1.138,0.334,1.138s-0.072-0.078-0.209-0.227c-0.148-0.148-0.343-0.384-0.571-0.72
	c-0.439-0.671-1.016-1.82-1.123-3.426c-0.109-1.189,0.03-2.588,0.439-4.071c-1.367-4.443,0.543-13.841,2.454-18.061
	c-0.342-0.729-0.701-1.46-1.079-2.195c-1.338-2.592-2.857-5.228-4.544-7.788c-0.119-0.182-0.211-0.311-0.342-0.539l-0.426-0.733
	c-0.282-0.49-0.503-1.031-0.733-1.558c-0.398-1.089-0.71-2.231-0.821-3.371c-0.27-2.29,0.115-4.447,0.632-6.337
	c0.534-1.897,1.269-3.59,2.011-5.148c0.736-1.568,1.5-3.018,2.176-4.372c0.667-1.355,1.224-2.644,1.505-3.676
	c0.146-0.523,0.199-0.951,0.191-1.272c0.005-0.115,0-0.115,0.022-0.117l0.037-0.022c0.01-0.022-0.048-0.165-0.069-0.242
	l-0.087-0.278l-0.023-0.07c0.025,0.044-0.107-0.262,0.068,0.134l-0.068-0.168l-0.265-0.676c-0.08-0.222-0.139-0.453-0.208-0.679
	l-0.202,0.245c0,0-0.03-0.042-0.078-0.123c-0.043-0.067-0.076-0.152-0.17-0.294c-0.173-0.271-0.433-0.67-0.77-1.137
	c-0.673-0.932-1.631-2.17-2.718-3.247c-0.271-0.255-0.55-0.55-0.831-0.778c-0.283-0.242-0.569-0.49-0.855-0.682
	c-0.287-0.222-0.571-0.404-0.854-0.552c-0.284-0.181-0.56-0.286-0.825-0.389c-0.273-0.127-0.517-0.162-0.751-0.207
	c-0.24-0.056-0.45-0.078-0.618-0.055c-0.365,0.022-0.575,0.035-0.575,0.035s0.169-0.13,0.465-0.357
	c0.153-0.132,0.359-0.247,0.615-0.346c0.252-0.112,0.555-0.252,0.892-0.309c0.337-0.082,0.721-0.169,1.114-0.185
	c0.407-0.046,0.833-0.061,1.262-0.039c0.448,0,0.887,0.047,1.344,0.097c0.467,0.041,0.902,0.134,1.367,0.208
	c0.685,0.127,1.352,0.29,1.995,0.464c0.239-0.907,0.552-1.763,0.925-2.549c1.454-3.03,3.444-5.197,5.31-6.998
	c3.812-3.527,7.288-5.731,9.456-7.561c1.083-0.899,1.861-1.687,2.176-2.351c0.165-0.325,0.241-0.611,0.247-0.8
	c0.01-0.2-0.006-0.305-0.006-0.305c-0.028-0.007,0.269,0.38,0.133,1.223c-0.137,0.828-0.693,1.926-1.551,3.147
	c-0.867,1.214-1.997,2.605-3.297,4.146c-1.305,1.526-2.756,3.245-4.13,5.168c-1.374,1.904-2.7,4.054-3.369,6.296
	c-0.689,2.251-0.558,4.409,0.463,6.467l0.206,0.385l0.051,0.098l0.149,0.335l0.129,0.264c0.044,0.106,0.074,0.137,0.134,0.303
	l0.18,0.545c0.117,0.377,0.209,0.758,0.242,1.034c0.217,1.234,0.166,2.404,0.011,3.439c-0.3,2.098-0.957,3.817-1.595,5.423
	c-0.636,1.611-1.315,3.095-1.916,4.521c-0.603,1.431-1.101,2.805-1.452,4.082c-0.346,1.277-0.446,2.443-0.359,3.42
	c0.032,0.497,0.167,0.943,0.306,1.394c0.108,0.215,0.171,0.441,0.299,0.656l0.18,0.325c0.066,0.128,0.202,0.332,0.297,0.496
	c1.768,2.926,3.282,5.919,4.519,8.942c1.218,3.032,2.209,6.061,2.695,9.233c0.104,0.678,0.175,1.368,0.209,2.074
	c0.09,0.367,0.185,0.71,0.373,0.895c0.409,0.963,0.633,0.698,0.871,1.03l0.801,0.248c0.221-0.011,0.43-0.009,0.485,0.123
	c0.014,0.033,14.301,4.47,14.301,4.47c0.744-0.647,2.192-3.117,2.227-7.864c0.005-0.551,0.022-1.279,0.043-2.125
	c0.056-2.57,0.229-10.172-0.424-12.399c-0.197-0.147-0.538-0.394-0.807-0.587c-1.883-1.367-5.039-3.653-5.48-7.638
	c-0.316-2.868,0.833-5.734,3.509-8.762c2.924-3.306,1.642-6.275-0.195-9.54c-0.119-0.213-0.247-0.446-0.375-0.689l-0.095-0.005
	c0,0,0.012-0.05,0.029-0.128c-0.614-1.208-1.122-2.747-0.332-4.375c-0.016-0.021-0.021-0.044-0.039-0.065
	c-0.154-0.195-0.29-0.411-0.467-0.623c-0.204-0.204-0.411-0.412-0.621-0.622c-0.472-0.403-0.972-0.829-1.561-1.213
	c-1.136-0.794-2.435-1.526-3.646-2.245c-1.215-0.707-2.36-1.416-3.3-2.062c-0.477-0.303-0.896-0.653-1.263-0.923
	c-0.38-0.271-0.673-0.535-0.917-0.754c-0.488-0.433-0.768-0.682-0.768-0.682s0.347,0.144,0.95,0.394
	c0.301,0.128,0.67,0.281,1.1,0.408c0.432,0.132,0.883,0.306,1.425,0.437c1.064,0.292,2.303,0.573,3.672,0.841
	c1.365,0.28,2.841,0.544,4.388,0.977c0.765,0.191,1.561,0.483,2.346,0.793c0.11,0.051,0.215,0.103,0.324,0.151
	c1.486-7.36,2.727-20.718,1.142-26.134c-0.988-3.388-1.491-7.284-1.669-11.275c-0.014-0.072-0.025-0.143-0.042-0.229
	c-0.083-0.522-0.231-1.265-0.458-2.163c-0.189-0.912-0.528-1.93-0.852-3.066c-0.406-1.081-0.773-2.31-1.316-3.436
	c-0.262-0.569-0.497-1.171-0.785-1.72c-0.298-0.55-0.594-1.09-0.879-1.613c-0.274-0.549-0.591-1.007-0.897-1.454
	c-0.309-0.459-0.6-0.892-0.871-1.29c-0.263-0.417-0.608-0.732-0.86-1.046c-0.265-0.306-0.499-0.572-0.689-0.791
	c-0.381-0.439-0.599-0.689-0.599-0.689s0.295,0.153,0.81,0.42c0.258,0.134,0.573,0.297,0.929,0.484c0.356,0.2,0.779,0.363,1.19,0.66
	c0.811,0.579,1.911,1.22,2.88,2.056c0.498,0.417,1.014,0.849,1.535,1.286c0.407,0.353,0.788,0.739,1.176,1.124
	c0.509-5.892,1.479-11.116,2.383-14.205c0.828-2.832,0.552-5.574-0.759-7.521c-1.378-2.049-4.32-4.838-7.817-5.193
	c-2.081-0.21-15.196,0.496-10.922,7.053c1.012,1.552,2.143,3.284,3.11,5.182c0.945,1.896,1.788,4.035,1.763,6.229
	c0.021,1.079-0.228,2.129-0.605,3.01c-0.202,0.44-0.395,0.857-0.663,1.21c-0.231,0.375-0.488,0.702-0.769,0.986
	c-0.503,0.61-1.084,1.027-1.557,1.424c-0.513,0.342-0.935,0.666-1.318,0.875c-0.763,0.417-1.195,0.656-1.195,0.656
	s0.358-0.337,0.983-0.927c0.312-0.289,0.634-0.701,1.023-1.131c0.338-0.476,0.761-0.98,1.051-1.609
	c0.174-0.296,0.314-0.622,0.418-0.966c0.141-0.331,0.199-0.693,0.263-1.051c0.106-0.723,0.087-1.473-0.129-2.217
	c-0.365-1.491-1.387-2.944-2.572-4.299c-2.378-2.72-7.993-10.936-11.349-12.193c-2.013-0.753-5.699,0-7.68,0.661
	c-2.736,0.913-8.699,7.471-13.681,11.695c-1.523,1.294-3.067,2.598-4.598,3.849c0.035,0.896,0.152,1.863,0.41,2.837
	c3.648,13.812,2.453,20.303-17.154,25.85c-5.126,1.45-5.042,2.062-4.498,6.06c0.177,1.303,0.374,2.812,0.395,4.513
	c2.98-0.708,6.366-1.029,9.721-1.485c3.719-0.486,7.365-1.167,9.796-2.434c0.614-0.3,1.135-0.644,1.575-0.986
	c0.437-0.343,0.802-0.681,1.052-0.999c0.539-0.617,0.719-1.074,0.743-1.061c-0.027-0.011-0.081,0.477-0.458,1.245
	c-0.169,0.395-0.451,0.842-0.813,1.326c-0.364,0.483-0.83,1-1.395,1.493c-2.238,2.045-5.89,3.771-9.463,5.241
	c-3.571,1.473-7.186,2.82-9.249,4.086c-0.515,0.306-1.203,1.038-1.425,1.452c-0.069,0.148-2.187,3.074-3.319,4.633
	c-3.753,9.143-3.637,10.311-1.505,15.772c1.365,3.473-0.454,6.31-2.872,8.926c-0.072,0.301-0.142,0.621-0.207,0.976
	c-0.43,2.274-0.784,5.512-0.816,8.746c-0.048,3.235,0.258,6.487,0.993,8.786c0.368,1.146,0.853,2.037,1.305,2.589
	c0.449,0.555,0.833,0.765,0.817,0.783c0.015-0.021-0.412-0.106-1.044-0.531c-0.631-0.42-1.435-1.199-2.185-2.285
	c-1.505-2.171-2.843-5.438-3.813-8.779c-0.593-2.026-1.052-4.062-1.405-5.968c-1.985,0.843-4.105,1.424-6.222,1.805
	c-5.475,4.877-0.469,16.559,1.273,20.161c0.972,2.007,2.101,3.999,3.295,5.867c2.534,1.95,5.236,3.695,7.268,4.933
	c1.261,0.768,4.961,1.266,6.648,1.971c0.534,0.224,1.01,0.454,1.464,0.688l-7.234-4.283c3.964-0.505,9.984-5.326,14.601-2.997
	c-5.278,0.88-7.812,4.869-3.628,9.494l-1.54-0.911c0.897,0.592,1.789,1.229,2.879,1.934c1.661,1.073,3.338,2.122,4.981,3.117
	c3.326,1.998,6.499,3.807,9.26,5.254c1.368,0.719,2.643,1.342,3.789,1.842c-0.562-0.765-1.107-1.555-1.614-2.396
	c-1.605-2.652-2.833-5.738-3.398-9.052c-0.577-3.313-0.382-6.792,0.353-10.074c0.36-1.606,0.909-3.335,1.459-4.759
	c0.549-1.403,1.098-2.812,1.652-4.229c1.079-2.773,2.076-5.471,2.721-8.106c0.632-2.638,0.857-5.23,0.628-7.818
	c-0.104-1.297-0.343-2.59-0.667-3.883c-0.351-1.28-0.664-2.348-1.299-3.874l-0.857-2.117c-0.303-0.793-0.593-1.592-0.848-2.417
	c-0.51-1.646-0.906-3.368-1.104-5.167c-0.1-0.909-0.142-1.84-0.119-2.781c-0.083-0.093-0.146-0.17-0.235-0.266
	c-1.179-1.279-2.941-2.947-4.867-4.376c-1.91-1.421-4.038-2.669-5.712-2.81c-0.407-0.019-0.778,0.026-1.09,0.151
	c-0.3,0.135-0.545,0.326-0.704,0.53c-0.341,0.404-0.404,0.74-0.429,0.726c0.028,0.007-0.026-0.321,0.182-0.869
	c0.099-0.274,0.293-0.596,0.616-0.896c0.33-0.29,0.785-0.518,1.302-0.668c1.038-0.263,2.271-0.234,3.513-0.043
	c1.253,0.184,2.546,0.523,3.809,0.929c1.678,0.537,3.28,1.2,4.709,1.868c0.312-0.833,0.679-1.642,1.115-2.403
	c0.931-1.638,2.098-3.065,3.337-4.267c0.622-0.597,1.261-1.146,1.9-1.651c0.604-0.484,1.359-1.028,1.815-1.359
	c0.678-0.479,1.501-1.393,2.178-2.338c0.698-0.958,1.326-2.014,1.861-3.101c1.073-2.177,1.785-4.495,2.117-6.768
	c0.331-2.277,0.228-4.514-0.237-6.601c-0.237-1.034-0.602-2.059-1.008-2.975l-0.308-0.665l-0.427-0.777l-0.458-0.819
	c-0.162-0.323-0.324-0.638-0.457-0.972c-0.563-1.32-0.838-2.782-0.804-4.163c0.027-1.386,0.366-2.663,0.803-3.782
	c0.898-2.245,2.145-3.954,3.296-5.491c2.326-3.041,4.537-5.362,5.704-7.638c0.584-1.122,0.924-2.192,0.978-3.16
	c0.06-0.967-0.161-1.804-0.434-2.444c-0.274-0.643-0.579-1.104-0.781-1.411c-0.224-0.298-0.339-0.454-0.339-0.454
	s0.144,0.127,0.422,0.376c0.262,0.265,0.677,0.656,1.083,1.282c0.408,0.618,0.828,1.488,0.962,2.614
	c0.152,1.121-0.027,2.446-0.499,3.787c-0.921,2.705-2.81,5.534-4.666,8.671c-0.9,1.573-1.791,3.272-2.229,5.016
	c-0.432,1.755-0.345,3.409,0.521,4.907c0.1,0.191,0.227,0.375,0.347,0.563l0.473,0.664l0.512,0.725l0.545,0.903
	c0.695,1.208,1.271,2.443,1.729,3.791c1.444-1.052,3.044-1.965,4.58-2.739c2.254-1.156,4.383-2.188,5.725-3.792
	c0.325-0.409,0.646-0.831,0.883-1.312l0.464-0.902c0.207-0.356,0.402-0.725,0.623-1.032c0.835-1.282,2.009-2.429,3.417-3.104
	c1.405-0.694,3.019-0.763,4.309-0.388c1.31,0.364,2.329,1.081,3.105,1.824c1.555,1.516,2.256,3.123,2.697,4.212
	c0.42,1.108,0.57,1.761,0.57,1.761s-0.276-0.617-0.89-1.601c-0.617-0.959-1.613-2.342-3.187-3.356
	c-0.774-0.501-1.704-0.884-2.653-0.945c-0.949-0.071-1.889,0.184-2.643,0.773c-0.756,0.586-1.363,1.442-1.769,2.465
	c-0.118,0.255-0.18,0.496-0.265,0.734l-0.278,0.939c-0.224,0.767-0.57,1.507-0.96,2.222c-0.807,1.422-1.905,2.621-3.005,3.609
	c-1.104,0.984-2.212,1.806-3.194,2.559c-2,1.493-3.442,2.832-4.231,4.07c-0.793,1.225-1.085,2.341-1.239,3.16
	c-0.115,0.94-3.01,8.28-3.01,8.28c-0.596,1.439-1.287,2.862-2.177,4.242c-0.906,1.382-1.884,2.728-3.457,4.045
	c-0.679,0.551-1.079,0.872-1.585,1.321c-0.475,0.422-0.918,0.849-1.326,1.285c-0.819,0.866-1.485,1.774-1.981,2.732
	c-0.997,1.903-1.242,4.073-0.94,6.479c0.162,1.201,0.473,2.44,0.892,3.687c0.208,0.623,0.451,1.248,0.707,1.874l0.408,0.938
	l0.481,1.177c0.56,1.285,1.197,3.134,1.645,4.808c0.439,1.675,0.77,3.404,0.927,5.163c0.333,3.523-0.06,7.114-0.877,10.406
	c-0.818,3.302-2.045,6.29-3.215,9.113c-0.578,1.385-1.152,2.763-1.726,4.135c-0.562,1.352-0.961,2.452-1.305,3.722
	c-0.656,2.465-0.851,4.924-0.595,7.305c0.533,4.773,3.1,9.196,6.31,12.887c0.804,0.926,1.639,1.819,2.502,2.67
	c0.439,0.419,0.875,0.836,1.307,1.248c0.46,0.42,0.918,0.837,1.373,1.251c1.779,1.623,3.566,3.144,5.319,4.498
	c3.503,2.709,6.957,4.852,10.25,5.832c3.093,0.951,5.974,0.663,8.163-0.366c0.743-0.391,1.498-0.854,2.279-1.387
	c1.218-0.913,2.132-1.878,2.767-2.609c0.477-0.536,0.802-0.979,1.03-1.275c0.229-0.296,0.348-0.448,0.348-0.448
	s-0.083,0.174-0.246,0.511c-0.161,0.336-0.379,0.855-0.754,1.478c-0.254,0.45-0.595,0.986-0.992,1.547
	c-1.997,6.342-1.425,5.092,4.692,10.95c1.996,1.046,4.101,2.398,6.154,4.15c2.311,1.946,4.582,4.326,6.679,7.1
	c0.462,0.621,0.912,1.268,1.358,1.931C343.944,349.098,335.432,323.38,331.063,320.174 M448.309,242.44
	c4.434,10.331,5.9,13.786,4.367,19.592l0.012-0.002c-0.65,3.103,0.529,4.926,1.775,6.23c2.248,2.355,6.658,3.925,11.656,4.243
	c0.998-6.726,0.076-14.681-4.41-20.027c-3.467-4.127-5.367-9.151-7.209-14.011c-1.969-5.202-3.84-10.116-7.211-12.122
	c0.266,1.679,0.117,3.512-0.109,5.302C446.805,234.597,446.377,237.941,448.309,242.44 M438.784,219.856
	c2.715,0.3,4.6,1.011,5.914,1.99c0.057-6.113-6.686-14.52-15.648-19.372c-1.227-0.666-2.508-1.491-3.812-2.404
	C424.284,207.82,418.989,217.666,438.784,219.856 M360.637,362.165c2.074-2.794,4.324-5.192,6.617-7.159
	c2.037-1.768,4.129-3.137,6.117-4.199c6.066-5.909,6.65-4.666,4.598-10.99c-0.398-0.56-0.748-1.094-1.004-1.541
	c-0.381-0.62-0.602-1.136-0.77-1.471c-0.162-0.336-0.246-0.509-0.246-0.509s0.119,0.152,0.35,0.445
	c0.232,0.293,0.562,0.735,1.043,1.266c0.641,0.727,1.562,1.683,2.787,2.586c0.787,0.526,1.545,0.984,2.289,1.367
	c2.201,1.009,5.082,1.273,8.166,0.297c3.285-1.009,6.723-3.181,10.201-5.921c1.738-1.368,3.514-2.902,5.283-4.54
	c0.449-0.418,0.9-0.84,1.359-1.264c0.428-0.417,0.861-0.835,1.297-1.258c0.854-0.86,1.682-1.759,2.479-2.691
	c3.178-3.719,5.705-8.165,6.199-12.94c0.234-2.384,0.02-4.841-0.658-7.301c-0.354-1.265-0.764-2.365-1.336-3.71
	c-0.584-1.367-1.17-2.741-1.762-4.12c-1.195-2.812-2.447-5.789-3.291-9.084c-0.848-3.286-1.27-6.874-0.967-10.399
	c0.143-1.76,0.457-3.492,0.883-5.169c0.434-1.679,1.057-3.533,1.602-4.824l0.473-1.179l0.4-0.942
	c0.248-0.628,0.488-1.254,0.689-1.881c0.41-1.25,0.709-2.492,0.861-3.693c0.281-2.408,0.018-4.575-0.996-6.47
	c-0.504-0.953-1.178-1.855-2.006-2.715c-0.408-0.433-0.855-0.856-1.334-1.274c-0.51-0.445-0.914-0.763-1.598-1.308
	c-1.584-1.304-2.572-2.643-3.492-4.016c-0.902-1.371-1.604-2.788-2.211-4.222c0,0-2.959-7.317-3.082-8.253
	c-0.16-0.82-0.459-1.934-1.268-3.151c-0.797-1.232-2.254-2.557-4.262-4.034c-0.992-0.746-2.105-1.557-3.219-2.531
	c-1.109-0.979-2.217-2.169-3.037-3.584c-0.393-0.711-0.748-1.448-0.979-2.213l-0.285-0.937c-0.088-0.238-0.152-0.477-0.27-0.731
	c-0.414-1.021-1.029-1.87-1.791-2.45c-0.758-0.582-1.701-0.829-2.648-0.751c-0.949,0.068-1.877,0.459-2.646,0.968
	c-1.564,1.026-2.547,2.417-3.158,3.383c-0.605,0.988-0.877,1.607-0.877,1.607s0.145-0.654,0.555-1.766
	c0.434-1.092,1.119-2.706,2.662-4.234c0.77-0.75,1.785-1.477,3.088-1.85c1.289-0.387,2.902-0.331,4.314,0.349
	c1.412,0.665,2.594,1.801,3.441,3.075c0.223,0.307,0.424,0.673,0.631,1.026l0.475,0.898c0.242,0.479,0.564,0.899,0.895,1.305
	c1.354,1.592,3.49,2.606,5.756,3.743c1.541,0.76,3.15,1.66,4.604,2.701c0.447-1.352,1.014-2.592,1.693-3.807l0.541-0.906
	l0.504-0.729l0.469-0.668c0.117-0.189,0.242-0.375,0.34-0.566c0.854-1.507,0.928-3.16,0.479-4.912
	c-0.451-1.741-1.355-3.432-2.27-4.996c-1.881-3.123-3.793-5.935-4.74-8.632c-0.482-1.337-0.674-2.661-0.533-3.784
	c0.129-1.125,0.541-2,0.941-2.622c0.4-0.628,0.811-1.021,1.072-1.29c0.275-0.252,0.418-0.38,0.418-0.38s-0.113,0.155-0.332,0.457
	c-0.203,0.309-0.502,0.771-0.771,1.417c-0.268,0.642-0.48,1.479-0.414,2.447c0.064,0.965,0.412,2.034,1.008,3.151
	c1.186,2.264,3.416,4.567,5.766,7.588c1.166,1.527,2.43,3.227,3.346,5.463c0.445,1.114,0.795,2.388,0.834,3.774
	c0.047,1.38-0.217,2.845-0.77,4.169c-0.129,0.337-0.291,0.653-0.447,0.977l-0.449,0.825l-0.424,0.777l-0.303,0.669
	c-0.396,0.918-0.754,1.946-0.984,2.981c-0.443,2.09-0.529,4.329-0.178,6.604c0.354,2.268,1.082,4.579,2.176,6.748
	c0.545,1.081,1.178,2.133,1.885,3.083c0.688,0.94,1.518,1.847,2.199,2.32c0.459,0.327,1.221,0.865,1.828,1.344
	c0.641,0.5,1.285,1.042,1.914,1.634c1.248,1.192,2.428,2.609,3.375,4.239c0.438,0.758,0.814,1.564,1.133,2.394
	c1.424-0.681,3.02-1.358,4.693-1.909c1.26-0.416,2.549-0.765,3.799-0.96c1.242-0.202,2.475-0.243,3.512,0.013
	c0.521,0.146,0.977,0.369,1.311,0.657c0.324,0.298,0.521,0.619,0.623,0.892c0.211,0.546,0.16,0.874,0.189,0.867
	c-0.023,0.014-0.092-0.322-0.434-0.723c-0.166-0.201-0.41-0.393-0.711-0.525c-0.311-0.121-0.684-0.163-1.09-0.141
	c-1.672,0.156-3.789,1.421-5.688,2.858c-1.914,1.446-3.662,3.128-4.83,4.417c-0.09,0.098-0.152,0.174-0.232,0.267
	c0.031,0.94-0.004,1.873-0.098,2.783c-0.182,1.801-0.562,3.526-1.062,5.176c-0.244,0.826-0.529,1.629-0.822,2.423l-0.84,2.125
	c-0.625,1.532-0.93,2.602-1.266,3.886c-0.314,1.294-0.543,2.591-0.635,3.887c-0.209,2.591,0.041,5.18,0.693,7.813
	c0.668,2.631,1.688,5.32,2.791,8.084c0.566,1.41,1.127,2.814,1.688,4.213c0.562,1.42,1.127,3.143,1.5,4.745
	c0.766,3.275,0.984,6.754,0.439,10.072c-0.537,3.318-1.738,6.417-3.322,9.081c-0.502,0.845-1.037,1.639-1.592,2.411
	c1.139-0.51,2.408-1.145,3.771-1.875c2.75-1.473,5.908-3.309,9.217-5.334c1.635-1.01,3.305-2.072,4.955-3.16
	c2.4-1.582,3.834-2.833,6.51-3.98c0.732-0.313,1.846-0.59,2.973-0.867c0.131-2.613-2.125-4.615-5.629-5.252
	c3.697-1.797,8.215,0.931,11.898,2.411c1.475-0.982,3.076-2.109,4.613-3.313c1.178-1.879,2.291-3.882,3.248-5.897
	c1.709-3.616,6.615-15.341,1.098-20.17c-2.117-0.363-4.246-0.927-6.236-1.752c-0.336,1.909-0.779,3.948-1.355,5.979
	c-0.939,3.349-2.248,6.627-3.736,8.812c-0.742,1.092-1.537,1.877-2.166,2.303c-0.629,0.431-1.055,0.518-1.039,0.54
	c-0.016-0.019,0.367-0.231,0.811-0.792c0.447-0.555,0.924-1.449,1.281-2.597c0.717-2.307,0.996-5.561,0.922-8.795
	c-0.062-3.233-0.443-6.467-0.895-8.739c-0.066-0.353-0.141-0.672-0.213-0.973c-2.441-2.598-4.283-5.416-2.949-8.901
	c2.086-5.48,2.193-6.648-1.641-15.762c-1.143-1.547-3.285-4.454-3.357-4.602c-0.227-0.411-0.922-1.137-1.438-1.44
	c-2.074-1.249-5.699-2.565-9.283-4.006c-3.588-1.441-7.254-3.135-9.51-5.162c-0.566-0.487-1.035-1.001-1.402-1.481
	c-0.369-0.48-0.654-0.924-0.828-1.318c-0.381-0.766-0.439-1.252-0.467-1.24c0.023-0.014,0.209,0.441,0.752,1.053
	c0.252,0.316,0.623,0.652,1.061,0.99c0.443,0.338,0.967,0.677,1.584,0.973c2.441,1.244,6.094,1.896,9.816,2.35
	c3.357,0.427,6.746,0.719,9.732,1.402c0.008-1.701,0.189-3.21,0.355-4.516c0.514-4.002,0.592-4.615-4.547-6.022
	c-19.654-5.379-20.904-11.86-17.373-25.703c0.25-0.976,0.355-1.943,0.387-2.838c-1.543-1.239-3.098-2.53-4.635-3.81
	c-5.014-4.182-12.523-11.357-15.398-11.136c-2.1,0.162-4.787-0.048-6.793,0.722c-3.346,1.287-8.164,7.79-10.516,10.53
	c-1.174,1.364-2.186,2.826-2.537,4.321c-0.209,0.747-0.223,1.495-0.111,2.217c0.068,0.358,0.127,0.719,0.273,1.048
	c0.107,0.343,0.25,0.668,0.426,0.963c0.297,0.627,0.725,1.127,1.064,1.6c0.393,0.426,0.719,0.837,1.031,1.124
	c0.633,0.583,0.994,0.917,0.994,0.917s-0.436-0.236-1.199-0.646c-0.389-0.204-0.811-0.525-1.328-0.863
	c-0.471-0.393-1.059-0.804-1.568-1.412c-0.281-0.279-0.541-0.605-0.775-0.979c-0.271-0.352-0.469-0.768-0.674-1.205
	c-0.385-0.879-0.643-1.926-0.631-3.004c-0.045-2.194,0.779-4.34,1.709-6.243c0.953-1.907,2.031-3.672,3.066-5.208
	c4.023-5.976-9.092-6.866-11.174-6.636c-3.494,0.384-6.221,2.875-7.58,4.935c-1.295,1.958-1.549,4.702-0.697,7.527
	c0.934,3.082,1.947,8.296,2.506,14.185c0.385-0.388,0.762-0.777,1.166-1.134c0.521-0.442,1.031-0.878,1.525-1.298
	c0.961-0.846,2.057-1.496,2.859-2.082c0.412-0.301,0.838-0.465,1.188-0.67c0.355-0.191,0.668-0.355,0.926-0.491
	c0.514-0.272,0.805-0.429,0.805-0.429s-0.215,0.252-0.594,0.695c-0.189,0.22-0.418,0.488-0.682,0.797
	c-0.248,0.316-0.592,0.634-0.852,1.052c-0.266,0.401-0.553,0.837-0.859,1.297c-0.303,0.45-0.615,0.911-0.885,1.463
	c-0.279,0.525-0.572,1.068-0.867,1.62c-0.281,0.553-0.512,1.156-0.771,1.729c-0.529,1.131-0.887,2.362-1.283,3.445
	c-0.314,1.141-0.648,2.161-0.828,3.075c-0.217,0.897-0.359,1.643-0.436,2.165c-0.018,0.087-0.029,0.156-0.043,0.231
	c-0.145,3.995-0.611,7.892-1.572,11.289c-1.537,5.429-0.182,18.778,1.367,26.124c0.107-0.051,0.213-0.102,0.32-0.154
	c0.783-0.316,1.576-0.616,2.342-0.814c1.541-0.446,3.016-0.722,4.379-1.014c1.365-0.279,2.604-0.572,3.662-0.872
	c0.543-0.135,0.992-0.313,1.424-0.449c0.428-0.13,0.797-0.285,1.094-0.417c0.604-0.254,0.947-0.4,0.947-0.4
	s-0.275,0.251-0.762,0.688c-0.24,0.222-0.533,0.487-0.908,0.76c-0.367,0.274-0.785,0.628-1.258,0.934
	c-0.934,0.654-2.07,1.374-3.281,2.09c-1.205,0.729-2.498,1.472-3.627,2.276c-0.588,0.389-1.082,0.819-1.553,1.228
	c-0.205,0.21-0.412,0.42-0.615,0.626c-0.174,0.213-0.309,0.43-0.459,0.627c-0.018,0.021-0.023,0.043-0.039,0.064
	c0.805,1.624,0.309,3.166-0.295,4.379c0.018,0.077,0.027,0.127,0.027,0.127l-0.094,0.006c-0.127,0.245-0.25,0.479-0.367,0.693
	c-1.809,3.278-3.064,6.26-0.113,9.542c2.703,3.005,3.875,5.861,3.582,8.731c-0.406,3.989-3.543,6.3-5.416,7.683
	c-0.268,0.197-0.604,0.444-0.799,0.595c-0.635,2.233-0.396,9.833-0.316,12.403c0.025,0.846,0.049,1.573,0.057,2.124
	c0.078,4.747,1.549,7.205,2.299,7.846c0,0,14.248-4.56,14.26-4.594c0.051-0.13,0.264-0.134,0.484-0.125l0.799-0.256
	c0.234-0.334,0.461-0.071,0.861-1.038c0.186-0.185,0.277-0.527,0.367-0.895c0.029-0.707,0.092-1.397,0.189-2.078
	c0.459-3.175,1.422-6.212,2.615-9.256c1.213-3.032,2.701-6.037,4.443-8.979c0.092-0.165,0.229-0.372,0.291-0.499l0.178-0.328
	c0.125-0.215,0.189-0.442,0.293-0.657c0.135-0.452,0.268-0.898,0.293-1.397c0.084-0.979-0.031-2.142-0.387-3.417
	c-0.361-1.274-0.871-2.642-1.486-4.067c-0.615-1.423-1.305-2.9-1.955-4.506c-0.652-1.601-1.322-3.315-1.641-5.41
	c-0.162-1.034-0.227-2.203-0.02-3.439c0.033-0.277,0.121-0.656,0.234-1.034l0.176-0.548c0.059-0.166,0.09-0.199,0.133-0.304
	l0.123-0.265l0.15-0.337l0.049-0.098l0.201-0.387c1.004-2.068,1.119-4.226,0.41-6.471c-0.689-2.235-2.033-4.375-3.422-6.267
	c-1.391-1.912-2.857-3.617-4.176-5.133c-1.312-1.529-2.453-2.911-3.332-4.117c-0.867-1.214-1.432-2.309-1.574-3.134
	c-0.146-0.843,0.146-1.233,0.117-1.225c0,0-0.014,0.105,0,0.304c0.006,0.19,0.084,0.477,0.25,0.799
	c0.322,0.661,1.109,1.442,2.201,2.333c2.18,1.812,5.674,3.984,9.518,7.479c1.881,1.784,3.889,3.935,5.369,6.953
	c0.377,0.781,0.701,1.636,0.945,2.539c0.643-0.179,1.307-0.347,1.994-0.48c0.463-0.078,0.898-0.174,1.363-0.218
	c0.457-0.055,0.895-0.105,1.342-0.108c0.432-0.026,0.857-0.015,1.266,0.027c0.391,0.013,0.777,0.098,1.115,0.176
	c0.336,0.055,0.641,0.191,0.893,0.302c0.256,0.096,0.463,0.208,0.617,0.339c0.299,0.225,0.469,0.353,0.469,0.353
	s-0.209-0.01-0.572-0.029c-0.172-0.022-0.381,0-0.621,0.06c-0.232,0.047-0.477,0.084-0.748,0.213
	c-0.268,0.106-0.537,0.213-0.822,0.396c-0.279,0.151-0.564,0.335-0.85,0.559c-0.285,0.195-0.568,0.445-0.85,0.691
	c-0.279,0.229-0.555,0.526-0.824,0.784c-1.076,1.087-2.025,2.333-2.688,3.271c-0.334,0.468-0.592,0.871-0.764,1.144
	c-0.092,0.141-0.123,0.227-0.164,0.296c-0.051,0.079-0.076,0.122-0.076,0.122l-0.205-0.244c-0.068,0.228-0.125,0.459-0.203,0.683
	l-0.258,0.675l-0.066,0.171c0.17-0.397,0.041-0.09,0.066-0.136l-0.021,0.07l-0.086,0.278c-0.021,0.078-0.078,0.224-0.068,0.245
	l0.037,0.021c0.021,0.003,0.016,0.002,0.023,0.118c-0.006,0.319,0.049,0.748,0.201,1.269c0.291,1.029,0.857,2.313,1.535,3.663
	c0.689,1.349,1.467,2.792,2.213,4.353c0.758,1.552,1.508,3.239,2.053,5.131c0.537,1.885,0.939,4.039,0.689,6.332
	c-0.102,1.141-0.402,2.286-0.791,3.378c-0.227,0.528-0.441,1.073-0.721,1.563l-0.418,0.735c-0.131,0.229-0.221,0.361-0.34,0.544
	c-1.666,2.573-3.162,5.223-4.477,7.825c-0.369,0.737-0.725,1.473-1.061,2.205c1.947,4.202,3.938,13.584,2.607,18.04
	c0.424,1.478,0.572,2.876,0.477,4.065c-0.096,1.609-0.664,2.761-1.096,3.436c-0.227,0.339-0.416,0.576-0.564,0.725
	c-0.137,0.151-0.207,0.229-0.207,0.229s0.164-0.399,0.322-1.141c0.154-0.743,0.193-1.843-0.129-3.121
	c-0.342-1.279-1.07-2.726-2.16-4.211c-1.111-1.458-2.605-3.008-4.346-4.293c-0.232-0.173-0.352-0.246-0.611-0.421
	c-0.953,0.103-2.021,0.189-2.324,0.228c-0.547,0.043-0.975,0.192-1.445,0.135c-0.213-0.036-1.627,0.007-3.186,0.054l-9.27,6.431
	c-4.342,3.244-12.635,29.031-10.166,43.485C359.733,363.439,360.18,362.791,360.637,362.165 M447.895,317.66l-0.027,0.025
	C447.946,317.629,448.049,317.517,447.895,317.66 M447.774,317.743c0.006,0,0.002,0,0.002,0c0.004,0,0.01-0.004,0.014-0.007
	C447.79,317.738,447.776,317.741,447.774,317.743 M449.176,443.291l-0.229-0.323c-0.533,0.136-1.088,0.235-1.68,0.252
	c-0.998,0.032-2.057-0.088-3.057-0.442c-0.77-0.255-1.5-0.63-2.129-1.085c-0.742,2.899-2.012,5.903-3.855,8.785
	c-1.406,2.159-3.117,4.278-5.244,6.13c-1.5,1.336-3.246,2.522-5.186,3.456c-0.121,0.982-0.289,2.204-0.527,3.49
	c0.367,1.25,0.648,2.672,0.709,4.193c0.064,0.884,0.023,1.795-0.045,2.723c-0.064,0.924-0.26,1.863-0.445,2.792
	c-0.258,0.933-0.504,1.852-0.885,2.743c-0.387,0.888-0.773,1.744-1.309,2.543c-0.264,0.395-0.494,0.791-0.771,1.153
	c-0.307,0.358-0.588,0.713-0.896,1.035c-0.564,0.658-1.266,1.204-1.904,1.665c-0.229,0.178-0.475,0.311-0.723,0.447l3.324-0.525
	c-0.043-0.033-0.09-0.041-0.135-0.045c1.98-0.611,7.727-4.517,17.789-16.961C453.528,451.039,449.299,443.498,449.176,443.291
	 M482.825,390.439c-0.848,0.039-1.719,0.056-2.609,0.06c-5.312,0.033-9.617-2.618-13.678,1.252
	c-1.361,1.275-2.959,5.479-4.246,7.075c-1.125,1.36-2.193,2.819-3.264,4.279c-1.236,5.065,1.232,4.169,4.801,6.434
	c0.557,0.35,1.09,0.646,1.545,1.043c0.23,0.183,0.451,0.361,0.664,0.534c0.191,0.2,0.379,0.393,0.557,0.578
	c0.367,0.349,0.633,0.735,0.854,1.076c0.24,0.323,0.414,0.621,0.514,0.896c0.223,0.516,0.352,0.807,0.352,0.807
	c-3.375-2.377-6.879-4.295-11.498-2.148c-1.23,0.293-2.334,0.674-3.152,1.055c-0.371,0.146-0.629,0.333-0.887,0.466
	c-0.225,0.139-0.191,0.215-0.275,0.27c-0.404,0.313-0.639,0.493-0.639,0.493l-0.018-0.038c-0.658,1.328-1.309,2.622-1.947,3.812
	c-1.596,2.994-3.166,5.413-4.396,7.019c-0.021,0.03-0.039,0.056-0.064,0.086c-1.109,1.491-1.113,4.766-0.732,6.54
	c0.768,3.566,1.164,3.964,4.967,4.196c2.08,0.123,4.18,0.114,6.24-0.219c4.215-0.681,7.945-2.691,11.006-5.64
	c6.982-6.73,10.533-16.76,12.949-25.922C480.172,403.279,482.549,390.452,482.825,390.439 M479.247,366.123
	c-1.031-1.382-2.164-2.906-2.953-4.63c-1.553,2.022-2.947,4.086-3.744,5.811c-0.457,0.968-0.711,1.822-0.791,2.444
	c-0.029,0.31-0.045,0.562-0.02,0.729c0.016,0.174,0.023,0.267,0.023,0.267c0.02-0.006-0.201-0.318-0.344-0.979
	c-0.141-0.655-0.184-1.632-0.066-2.781c0.225-2.309,1.049-5.272,2.041-8.146c0.992-2.878,2.154-5.687,3.07-7.776
	c0.432-0.947,0.789-1.739,1.059-2.333c3.562-14.421,5.164-47.384-7.523-62.997c-0.057,3.705-1.051,7.979-3.002,12.691
	c-0.043,0.098-0.086,0.199-0.133,0.301c-1.416,3.036-5.549,8.562-4.793,11.826c0.756,3.262,6.674,5.712,9.33,7.751
	c1.268,0.971,2.303,1.908,3.068,2.754c0.691,0.734,1.154,1.434,1.336,2.004c0.1,0.285,0.047,0.566-0.055,0.681
	c-0.094,0.118-0.17,0.136-0.162,0.141c0,0,0.189-0.309-0.182-0.597c-0.32-0.311-1.002-0.593-1.84-0.936
	c-1.721-0.638-4.285-1.351-7.338-2.127c-3.051-0.761-6.617-1.609-10.332-2.233c-1.848-0.309-3.756-0.537-5.477-0.578
	c-0.848-0.015-1.658,0.071-2.189,0.183c-0.199,0.042-0.326,0.09-0.393,0.124l-0.494,0.464c-2.008,1.742-3.895,2.935-5.854,4.057
	c-1.939,1.108-3.889,2.054-5.814,2.878c-3.846,1.651-7.598,2.798-10.936,3.425c-0.561,0.107-1.107,0.192-1.646,0.269
	c3.348,2.322,6.869,7.299,6.686,9.343c-3.521-2.346-10.891-5.085-16.557-5.286c-1.254,1.1-2.523,2.123-3.717,3.019
	c-2.041,1.542-4.039,2.971-6.068,4.235c-2.574,1.618-5.184,2.985-7.785,3.938c-1.693,2.156-2.809,4.624-2.074,7.016
	c0.953,0.534,1.924,1.098,2.914,1.715c1.078,0.646,2.148,1.369,3.24,2.103c1.062,0.768,2.148,1.55,3.166,2.407
	c1.037,0.855,2.016,1.759,2.934,2.737c0.918,0.946,1.748,2.03,2.473,3.104c0.695,1.154,1.307,2.277,1.625,3.561
	c0.176,0.598,0.246,1.281,0.285,1.863c-0.043,0.64-0.025,1.198-0.225,1.734c-0.082,0.257-0.162,0.501-0.24,0.738
	c-0.113,0.223-0.236,0.427-0.357,0.613c-0.221,0.389-0.486,0.675-0.744,0.908c-0.451,0.51-0.955,0.716-1.24,0.888
	c-0.301,0.16-0.465,0.227-0.465,0.227s0.037-0.177,0.105-0.51c0.078-0.312,0.18-0.772,0.189-1.311
	c0.027-0.26,0.025-0.541-0.057-0.829c-0.031-0.14-0.057-0.279-0.076-0.415c-0.057-0.132-0.117-0.267-0.178-0.405
	c-0.217-0.525-0.617-1.003-1.135-1.504c-0.475-0.501-1.215-1.028-1.938-1.581c-0.801-0.551-1.637-1.128-2.588-1.732
	c-0.922-0.608-1.945-1.223-2.945-1.902c-1.041-0.652-2.062-1.375-3.129-2.092c-1.035-0.748-2.1-1.496-3.109-2.312
	c-1.021-0.794-2.006-1.647-2.936-2.521c-0.934-0.883-1.799-1.791-2.582-2.738c-0.779-0.933-1.465-1.912-2.021-2.895
	c-0.084-0.146-0.139-0.291-0.213-0.436c-0.756-0.474-1.533-0.889-2.436-1.133c-0.428,0.162-0.875,0.34-1.359,0.559
	c-1.461,0.67-3.105,1.707-4.83,3.072c-1.707,1.399-3.473,3.162-5.184,5.255c-1.721,2.079-3.387,4.505-4.883,7.181
	c-1.113,2.007-2.148,4.159-2.988,6.412l0.383,0.525l-0.775,2.021c-0.498,1.299-0.977,2.824-1.428,4.495
	c-0.213,1.692-0.389,3.462-0.547,5.241c-0.279,3.604-0.482,7.297-0.494,10.961c-0.051,3.664,0.084,7.317,0.451,10.781
	c0.207,1.723,0.461,3.41,0.834,4.964c0.375,1.54,0.889,2.975,1.479,3.992c1.129,1.918,2.211,1.571,4.141,1.24
	c0.334-0.094,0.666-0.187,0.998-0.276c2.674-0.853,5.225-2.337,7.605-3.806c2.383-1.48,4.656-2.928,6.854-4.018
	c2.176-1.122,4.404-1.724,6.244-1.696c1.861,0.031,3.166,0.693,3.936,1.166c0.404,0.223,0.664,0.473,0.85,0.609
	c0.182,0.147,0.277,0.221,0.277,0.221s-0.115-0.039-0.334-0.116c-0.223-0.074-0.539-0.206-0.971-0.303
	c-0.838-0.24-2.127-0.373-3.6-0.033c-1.482,0.369-3.084,1.323-4.812,2.686c-1.73,1.378-3.549,3.193-5.734,5.12
	c-2.189,1.917-4.73,4.048-8.131,5.653c-0.432,0.193-0.859,0.378-1.32,0.563c-0.465,0.165-1.055,0.372-1.445,0.48l-0.607,0.172
	l-0.152,0.046l-0.037,0.009l-0.15,0.034l-0.111,0.023l-0.461,0.086c-0.621,0.106-1.295,0.153-1.99,0.111
	c-0.318-0.017-0.643-0.061-0.963-0.118c0.693,5.468-0.014,10.92-0.668,15.901c-0.904,6.904-1.686,12.953,1.023,17.758
	c0.439-0.281,0.873-0.541,1.309-0.804c2.723-1.593,5.377-2.739,7.947-3.842c5.152-2.131,9.99-3.776,14.121-5.193
	c4.129-1.422,7.574-2.557,9.855-3.591c1.137-0.517,2.004-0.984,2.467-1.441c0.498-0.434,0.51-0.848,0.51-0.848
	c-0.02-0.019,0.174,0.4-0.174,1.088c-0.33,0.666-1.02,1.507-2.01,2.395c-1.977,1.792-5.061,3.938-8.855,6.225
	c-1.895,1.148-3.971,2.335-6.158,3.563c-2.176,1.211-4.471,2.485-6.846,3.807c-2.34,1.3-4.75,2.68-6.9,4.128
	c-1.031,0.702-2.094,1.553-2.477,2.039c-0.697,0.857-1.17,1.738-1.338,2.355c-0.162,0.637-0.113,0.934,0.109,1.482
	c0.225,0.548,0.82,1.284,1.623,1.978c1.6,1.416,3.963,2.689,6.129,3.704c1.619,0.773,4.02,1.078,6.281,1.162
	c2.293,0.08,4.572-0.036,6.688-0.183c2.119-0.163,4.094-0.359,5.85-0.56c1.771-0.2,3.316-0.373,4.59-0.518
	c2.559-0.318,4.062-0.452,4.062-0.452s-1.238,0.86-3.545,2.091c-2.299,1.259-5.67,2.875-10.008,4.267
	c-2.178,0.675-4.59,1.315-7.307,1.659c-1.357,0.168-2.793,0.285-4.326,0.224c-0.021,0-0.045-0.003-0.066-0.006
	c-1.301,2.502-2.273,6.06-1.268,10.607c-2.373-3.868-3.504-8.485-3.926-12.086c-1.561-2.91-3.396-2.796-5.238-2.925
	c-3.703,11.631,1.732,16.174,1.934,16.333l1.709,1.244l-0.08,2.113c-0.262,6.782,3.48,12.165,7.137,13.788
	c2.008,0.89,6.91,2.562,9.143-1.12l0.359-0.589c-0.344-0.567-0.68-1.171-0.996-1.846c-0.938-2.011-1.748-4.461-2.209-7.236
	c-0.209-1.396-0.365-2.859-0.25-4.478c0.055-0.813,0.164-1.662,0.496-2.623c0.17-0.479,0.396-0.992,0.781-1.536
	c0.377-0.533,0.967-1.123,1.773-1.487c0.398-0.183,0.824-0.294,1.248-0.348c0.232-0.026,0.562-0.028,0.719-0.024l0.131,0.006
	l0.064,0.006l0.213,0.017l0.969,0.058c0.65,0.064,1.275,0.093,1.885,0.09c0.613,0.043,1.221,0.019,1.82-0.005
	c0.594,0.005,1.205-0.053,1.803-0.104c0.596-0.031,1.199-0.081,1.797-0.166c0.6-0.075,1.18-0.088,1.764-0.179
	c1.168-0.154,2.281-0.226,3.328-0.339c2.088-0.18,3.893-0.239,5.166-0.234c1.271-0.005,2.023,0.088,2.023,0.088
	s-0.594,0.468-1.678,1.133c-1.076,0.682-2.639,1.562-4.611,2.447c-0.973,0.458-2.082,0.85-3.25,1.273
	c-1.199,0.368-2.457,0.762-3.875,0.992c-1.383,0.263-2.912,0.37-4.432,0.312c-0.766-0.028-1.527-0.126-2.262-0.243l-0.715-0.182
	c-0.035,0.047-0.068,0.101-0.1,0.18c-0.164,0.344-0.314,0.868-0.424,1.42c-0.207,1.12-0.285,2.376-0.293,3.592
	c-0.021,2.454,0.205,4.819,0.52,6.812c0.074,0.488,0.16,0.951,0.252,1.393l1.02-0.09c19.02-1.703,28.615-12.359,32.23-19.082
	c-0.982-0.855-1.92-2.059-2.373-4.102c-0.055-0.004-0.088-0.008-0.088-0.008s0.02-0.06,0.051-0.151
	c-0.018-0.086-0.041-0.163-0.057-0.253l0.156-0.025c0.09-0.224,0.188-0.551,0.336-0.893c0.07-0.181,0.146-0.383,0.232-0.604
	c0.049-0.253,0.129-0.488,0.189-0.75c0.135-0.52,0.314-1.005,0.408-1.631c0.123-0.59,0.279-1.159,0.377-1.837
	c0.053-0.327,0.139-0.642,0.211-0.964c0.037-0.354,0.121-0.69,0.18-1.038c0.168-0.669,0.264-1.418,0.438-2.135
	c0.174-0.72,0.305-1.49,0.516-2.225c0.148-0.767,0.385-1.507,0.572-2.265c0.205-0.755,0.439-1.495,0.664-2.225
	c0.238-0.728,0.479-1.438,0.732-2.119c0.088-0.226,0.172-0.422,0.254-0.64c-0.115-0.838-0.27-1.589-0.5-2.23
	c-0.129,0.022-0.254,0.043-0.369,0.062c-1.336,0.194-2.652,0.308-3.943,0.395c-2.584,0.151-5.074,0.129-7.449,0.01
	c-4.748-0.23-9.035-0.783-12.643-1.125c-3.6-0.357-6.535-0.471-8.383,0.089c-0.904,0.295-1.559,0.758-1.902,1.204
	c-0.355,0.444-0.498,0.749-0.498,0.749s-0.004-0.082-0.014-0.237c-0.01-0.161-0.012-0.401,0.049-0.716
	c0.092-0.622,0.492-1.606,1.443-2.467c0.924-0.886,2.264-1.624,3.82-2.203c1.561-0.579,3.336-1.021,5.256-1.364
	c3.842-0.691,8.254-0.996,12.822-1.279c2.285-0.153,4.609-0.281,6.904-0.499c1.15-0.093,2.283-0.241,3.4-0.396
	c0.6-0.085,1.01-0.14,1.668-0.261c0.471-0.09,0.9-0.182,1.354-0.327c1.809-0.506,3.594-1.506,5.273-2.727
	c1.664-1.243,3.217-2.721,4.564-4.312c2.717-3.179,4.729-6.726,5.812-9.937c0.035-0.104,0.061-0.202,0.094-0.305
	c-2.299-4.498-9.068-7.381-10.189-15.908c5.404,5.595,10.205,4.21,14.598,1.251c3.801-2.562,2.428-5.087,2.502-7.863
	c0.188-6.886,7.818-7.557,12.799-16.452c1.164-2.082,2.834-8.671,4.795-10.229c1.945-1.548,2.262-1.377,4.883-2.105
	c4.15-1.155,8.666-0.048,12.68,1.124c0.895,0.26,1.725,0.513,2.492,0.734c0.553-4.411,0.701-7.299,0.707-7.432
	C484.278,372.862,481.721,369.437,479.247,366.123 M385.713,493.846l-0.025,0.083c0.078-0.01,0.154-0.036,0.232-0.072
	c0.031-0.021,0.035-0.029,0.057-0.044l-0.375-0.096h-0.018C385.645,493.717,385.424,493.814,385.713,493.846 M424.19,482.278
	c-0.168-0.018-0.346,0.093-0.488,0.101C423.823,482.379,423.993,482.34,424.19,482.278"/>
<path fill="#2F76DD" stroke="#FFFF00" stroke-width="3" d="M450.566,331.966c-32.048-0.889-56.925-25.436-87.908-31.139
	c-13.958-2.583-28.297,0.176-41.49,4.721c-6.777,2.325-13.886,5.725-19.897,9.599c-7.047,4.565-17.926,16.427-27.192,12.511
	c-2.872-1.219-13.42,3.203-9.319,4.959c1.881,0.775,3.721,1.271,5.59,1.539c0.051,0.104,0.113,0.207,0.196,0.279
	c7.397,6.705,15.621,11.189,24.382,14.246c0,0.012,0,0.031,0.021,0.043c8.678,8.781,3.191,25.311-6.789,30.857
	c-0.65,0.383-1.993,1.23-1.209,2.109c7.708,8.637,7.295,22.873,10.188,33.564c0.641,2.295,6.529-0.02,7.18-1.498
	c7.016-16.127,6.479-32.924,5.734-49.898c1.57,3.006,3.089,6.115,4.834,9.061c5.219,8.75,12.491,16.674,19.517,23.988
	c12.46,13.008,30.312,19.898,47.916,21.955c15.528,1.807,30.849-3.73,41.759-14.713c9.67-9.711,12.273-25.58,0.848-34.754
	c-14.217-11.416-49.693-6.416-44.135,17.656c4.09,17.688,36.965,10.32,32.047-9.535c-1.053-4.246-12.562-1.23-11.51,3.078
	c1.799,7.232-1.828,12.314-7.789,5.713c-7.025-7.748,3.389-17.016,11.303-15.973c25.105,3.328,15.91,31.676-1.157,39.756
	c-20.353,9.607-47.803-6.51-61.45-20.725c-6.653-6.943-13.348-14.826-17.894-23.307c-2.231-4.164-4.194-8.4-6.705-12.316
	c9.422,1.178,19.061,1.51,28.606,1.727c29.445,0.682,54.053-9.846,81.193-19.785c0.455-0.164,0.857-0.309,1.199-0.475
	c5.537,1.26,11.25,2.045,17.18,2.211C449.43,337.524,458.274,332.173,450.566,331.966z M391.905,344.28
	c-15.113,5.373-29.877,6.25-45.746,5.816c-22.398-0.578-44.579-3.15-62.277-17.584c3.668-1.312,7.201-3.172,10.549-5.238
	c13.038-8.119,24.454-16.405,38.287-19.949c-5.176,4.185-8.492,10.508-8.492,17.574c0,12.625,10.518,22.852,23.494,22.852
	c12.955,0,23.482-10.227,23.482-22.852c0-6.809-3.09-12.895-7.955-17.099c12.894,3.522,25.021,10.548,36.686,16.521
	c7.016,3.574,14.041,6.611,21.252,8.863C411.39,336.821,401.73,340.757,391.905,344.28z"/>
</svg>
